<svg width="88" height="87" viewBox="0 0 88 87" fill="none" xmlns="http://www.w3.org/2000/svg">
<mask id="mask0_15_5436" style="mask-type:luminance" maskUnits="userSpaceOnUse" x="0" y="0" width="88" height="87">
<path d="M87.1912 0H0V86.8834H87.1912V0Z" fill="white"/>
</mask>
<g mask="url(#mask0_15_5436)">
<path d="M87.1937 43.4417C87.1937 67.4339 67.6753 86.8834 43.5981 86.8834C19.5208 86.8834 0.0012207 67.4351 0.0012207 43.4417C0.0012207 19.4482 19.5196 0 43.5981 0C67.6765 0 87.1937 19.4495 87.1937 43.4417Z" fill="#ECA235"/>
<path d="M40.5364 46.0421L37.1908 48.8211C37.1908 48.8211 33.2697 52.8959 30.8744 48.8658C28.3471 43.1402 29.792 36.2143 34.8541 32.0067C40.9861 26.9128 50.1013 27.7357 55.2132 33.8461C60.3251 39.9565 59.4993 49.0395 53.3672 54.1334C48.1109 58.5011 40.6585 58.5185 35.4195 54.5815C34.9774 54.2488 34.5489 53.8876 34.1403 53.5004M24.9566 58.9418C25.6778 59.8019 26.394 60.667 27.1189 61.5247C27.8875 62.432 28.2761 62.4618 29.224 61.6885C29.9003 61.1362 30.5618 60.5652 31.2468 60.0179C32.115 59.324 33.0504 59.2421 34.0407 59.7647C34.7021 60.1147 35.3685 60.4511 36.0336 60.7986C37.0463 61.3261 37.5607 62.1515 37.4785 63.2996C37.4137 64.2317 37.2991 65.1589 37.2319 66.091C37.1621 67.0803 37.4162 67.3955 38.4115 67.4911C40.742 67.7195 43.0762 67.9292 45.4117 68.1278C46.377 68.2073 46.6884 67.9243 46.7943 66.9251C46.8914 66.0277 46.879 65.1105 47.0733 64.2354C47.2078 63.6335 47.4694 62.7857 47.919 62.5797C49.2518 61.9653 50.6855 61.5061 52.1254 61.2293C52.6099 61.1349 53.3249 61.6749 53.777 62.0944C54.4584 62.7262 54.989 63.5143 55.6056 64.2193C56.247 64.9479 56.693 64.9901 57.4416 64.3757C59.2477 62.8888 61.0488 61.3931 62.8399 59.8888C63.5636 59.2794 63.591 58.8226 62.9745 58.0568C62.4077 57.353 61.8148 56.6691 61.2406 55.9716C60.4795 55.0519 60.3874 54.0751 60.9691 53.0262C61.3178 52.3994 61.6355 51.7565 61.9693 51.1247C62.4986 50.1132 63.3295 49.608 64.4816 49.6899C65.4171 49.757 66.3475 49.8637 67.2829 49.9332C68.2682 50.0052 68.5896 49.747 68.6855 48.7553C68.9122 46.433 69.1214 44.107 69.3195 41.7798C69.4017 40.808 69.1252 40.5101 68.115 40.4071C67.1845 40.3127 66.2466 40.2556 65.3162 40.1464C64.2113 40.0173 63.4976 39.388 63.1563 38.3392C62.9271 37.6305 62.7179 36.9143 62.4849 36.2019C62.1287 35.1084 62.3629 34.1763 63.246 33.4278C63.9821 32.801 64.7332 32.1904 65.4694 31.5661C66.0735 31.0534 66.1457 30.4875 65.6213 29.8631C64.0967 28.0485 62.5858 26.224 61.0563 24.4143C60.4422 23.6907 59.9863 23.6659 59.2153 24.2803C58.5339 24.8251 57.875 25.4011 57.1924 25.9484C56.13 26.8011 55.2543 26.8706 54.0859 26.2364C53.5117 25.9261 52.9263 25.627 52.3446 25.3316C51.1875 24.742 50.7229 23.9166 50.8275 22.5972C50.8972 21.7271 50.9994 20.862 51.0617 19.992C51.1364 19.0002 50.8823 18.6825 49.8896 18.5894C47.5591 18.3635 45.2248 18.1513 42.8893 17.9552C41.9165 17.8732 41.6026 18.1587 41.4993 19.1504C41.4021 20.0801 41.3448 21.0122 41.2402 21.9394C41.1156 23.0453 40.4816 23.754 39.4341 24.0966C38.7229 24.3299 38.0017 24.526 37.2892 24.7606C36.1893 25.128 35.2564 24.8897 34.5028 24.0147C33.8937 23.3059 33.3058 22.5774 32.6917 21.8724C32.0527 21.1413 31.5993 21.0941 30.8557 21.706C29.0496 23.1905 27.2485 24.6861 25.4573 26.1905C24.7336 26.7999 24.7038 27.2616 25.3153 28.0225C25.902 28.7486 26.5223 29.4523 27.1065 30.1821C27.8003 31.0472 27.8999 31.9769 27.3631 32.9636C27.0218 33.5929 26.6917 34.2309 26.3728 34.8701C25.826 35.9636 24.9579 36.4961 23.726 36.3968C22.793 36.3198 21.8601 36.228 20.9271 36.1386C20.1212 36.0616 19.6853 36.4166 19.6143 37.2246C19.4 39.6115 19.1808 41.9995 18.9653 44.3863C18.8931 45.1943 19.2668 45.6114 20.0776 45.6734C21.0131 45.7454 21.946 45.8373 22.879 45.9291C24.0685 46.0458 24.8196 46.6999 25.1671 47.8281C25.3789 48.512 25.5806 49.1984 25.8036 49.8761C26.1698 50.9746 25.9232 51.9042 25.05 52.6551C24.3164 53.2844 23.5628 53.8951 22.8267 54.5194C22.22 55.032 22.1503 55.598 22.6747 56.2198C23.4382 57.1247 24.1943 58.0369 24.9554 58.9442L24.9566 58.9418ZM50.9396 37.2073C50.9396 37.2073 49.2979 36.3695 46.9823 36.0592C40.0345 35.1345 34.5265 41.9312 37.0014 48.4661C37.0313 48.5455 37.0637 48.6275 37.0961 48.7094C37.0961 48.7094 39.8352 50.6854 43.1235 50.6506C44.7826 50.6332 46.5588 49.9071 47.5964 48.5877C48.2279 47.7822 48.6215 46.8104 48.8532 45.8162C49.1721 44.4558 49.197 43.0471 49.3577 41.6619C49.542 40.0906 49.9743 38.4869 50.9396 37.2073Z" stroke="white" stroke-width="0.775" stroke-linecap="round" stroke-linejoin="round"/>
</g>
</svg>
