<svg width="88" height="87" viewBox="0 0 88 87" fill="none" xmlns="http://www.w3.org/2000/svg">
<path d="M87.0243 43.3575C87.0243 67.3038 67.5433 86.7161 43.5121 86.7161C19.481 86.7161 0 67.3038 0 43.3575C0 19.4112 19.481 -0.000976562 43.5121 -0.000976562C67.5433 -0.000976562 87.0243 19.4112 87.0243 43.3575Z" fill="#ECA235"/>
<path d="M19.0488 66.0835C19.0064 66.0835 18.9641 66.0786 18.9217 66.0686C18.6215 65.9991 18.4372 65.7 18.5069 65.4034C19.4573 61.3658 24.1731 58.4341 29.7147 58.4341C35.2564 58.4341 39.9734 61.3658 40.925 65.4034C40.9948 65.7 40.8104 65.9991 40.5103 66.0686C40.2126 66.1382 39.9149 65.9545 39.8426 65.6553C39.0081 62.113 34.7507 59.54 29.7147 59.54C24.6788 59.54 20.4239 62.113 19.5893 65.6553C19.5271 65.9098 19.3016 66.0835 19.0475 66.0835" fill="white"/>
<path d="M19.0488 66.0835C19.0064 66.0835 18.9641 66.0786 18.9217 66.0686C18.6215 65.9991 18.4372 65.7 18.5069 65.4034C19.4573 61.3658 24.1731 58.4341 29.7147 58.4341C35.2564 58.4341 39.9734 61.3658 40.925 65.4034C40.9948 65.7 40.8104 65.9991 40.5103 66.0686C40.2126 66.1382 39.9149 65.9545 39.8426 65.6553C39.0081 62.113 34.7507 59.54 29.7147 59.54C24.6788 59.54 20.4239 62.113 19.5893 65.6553C19.5271 65.9098 19.3016 66.0835 19.0475 66.0835H19.0488Z" stroke="white" stroke-width="0.18" stroke-miterlimit="10"/>
<path d="M29.716 45.8486C27.2684 45.8486 25.2742 47.8333 25.2742 50.2747C25.2742 52.7161 27.2684 54.6983 29.716 54.6983C32.1636 54.6983 34.1578 52.7136 34.1578 50.2747C34.1578 47.8358 32.1636 45.8486 29.716 45.8486ZM29.716 55.8067C26.6544 55.8067 24.1644 53.3256 24.1644 50.2747C24.1644 47.2239 26.6544 44.7402 29.716 44.7402C32.7777 44.7402 35.2676 47.2239 35.2676 50.2747C35.2676 53.3256 32.7777 55.8067 29.716 55.8067Z" fill="white"/>
<path d="M29.716 45.8486C27.2684 45.8486 25.2742 47.8333 25.2742 50.2747C25.2742 52.7161 27.2684 54.6983 29.716 54.6983C32.1636 54.6983 34.1578 52.7136 34.1578 50.2747C34.1578 47.8358 32.1636 45.8486 29.716 45.8486ZM29.716 55.8067C26.6544 55.8067 24.1644 53.3256 24.1644 50.2747C24.1644 47.2239 26.6544 44.7402 29.716 44.7402C32.7777 44.7402 35.2676 47.2239 35.2676 50.2747C35.2676 53.3256 32.7777 55.8067 29.716 55.8067Z" stroke="white" stroke-width="0.18" stroke-miterlimit="10"/>
<path d="M46.6398 66.0835C46.5975 66.0835 46.5551 66.0786 46.5128 66.0686C46.2126 65.9991 46.0282 65.7 46.098 65.4034C47.0484 61.3658 51.7642 58.4341 57.3083 58.4341C62.8524 58.4341 67.5645 61.3658 68.5161 65.4034C68.5858 65.7 68.4015 65.9991 68.1013 66.0686C67.8036 66.1382 67.5034 65.9545 67.4337 65.6553C66.5991 62.113 62.3417 59.54 57.3083 59.54C52.2749 59.54 48.015 62.113 47.1804 65.6553C47.1181 65.9098 46.8927 66.0835 46.6386 66.0835" fill="white"/>
<path d="M46.6398 66.0835C46.5975 66.0835 46.5551 66.0786 46.5128 66.0686C46.2126 65.9991 46.0282 65.7 46.098 65.4034C47.0484 61.3658 51.7642 58.4341 57.3083 58.4341C62.8524 58.4341 67.5645 61.3658 68.5161 65.4034C68.5859 65.7 68.4015 65.9991 68.1013 66.0686C67.8036 66.1382 67.5034 65.9545 67.4337 65.6553C66.5991 62.113 62.3417 59.54 57.3083 59.54C52.2749 59.54 48.015 62.113 47.1804 65.6553C47.1181 65.9098 46.8927 66.0835 46.6386 66.0835H46.6398Z" stroke="white" stroke-width="0.18" stroke-miterlimit="10"/>
<path d="M57.307 45.8486C54.8594 45.8486 52.8653 47.8333 52.8653 50.2747C52.8653 52.7161 54.8594 54.6983 57.307 54.6983C59.7546 54.6983 61.7488 52.7136 61.7488 50.2747C61.7488 47.8358 59.7546 45.8486 57.307 45.8486ZM57.307 55.8067C54.2454 55.8067 51.7554 53.3256 51.7554 50.2747C51.7554 47.2239 54.2454 44.7402 57.307 44.7402C60.3687 44.7402 62.8586 47.2239 62.8586 50.2747C62.8586 53.3256 60.3687 55.8067 57.307 55.8067Z" fill="white"/>
<path d="M57.307 45.8486C54.8594 45.8486 52.8653 47.8333 52.8653 50.2747C52.8653 52.7161 54.8594 54.6983 57.307 54.6983C59.7546 54.6983 61.7488 52.7136 61.7488 50.2747C61.7488 47.8358 59.7546 45.8486 57.307 45.8486ZM57.307 55.8067C54.2454 55.8067 51.7554 53.3256 51.7554 50.2747C51.7554 47.2239 54.2454 44.7402 57.307 44.7402C60.3687 44.7402 62.8586 47.2239 62.8586 50.2747C62.8586 53.3256 60.3687 55.8067 57.307 55.8067Z" stroke="white" stroke-width="0.18" stroke-miterlimit="10"/>
<path d="M58.7258 41.8432C58.4181 41.8432 58.169 41.6086 58.169 41.3008C58.169 36.2665 54.0772 32.1892 49.05 32.1892H37.9718C32.9446 32.1892 28.8528 36.2665 28.8528 41.276C28.8528 41.5825 28.6049 41.842 28.296 41.842C27.9909 41.842 27.7393 41.6074 27.7393 41.2996V41.2747C27.7393 35.6534 32.3305 31.0796 37.9705 31.0796H49.0488C54.6901 31.0796 59.2801 35.6546 59.2801 41.2747C59.2801 41.5813 59.0322 41.8407 58.7233 41.8407" fill="white"/>
<path d="M58.7258 41.8432C58.4181 41.8432 58.169 41.6086 58.169 41.3008C58.169 36.2665 54.0772 32.1892 49.05 32.1892H37.9718C32.9446 32.1892 28.8528 36.2665 28.8528 41.276C28.8528 41.5825 28.6049 41.842 28.296 41.842C27.9909 41.842 27.7393 41.6074 27.7393 41.2996V41.2747C27.7393 35.6534 32.3305 31.0796 37.9705 31.0796H49.0488C54.6901 31.0796 59.2801 35.6546 59.2801 41.2747C59.2801 41.5813 59.0322 41.8407 58.7233 41.8407L58.7258 41.8432Z" stroke="white" stroke-width="0.18" stroke-miterlimit="10"/>
<path d="M43.5122 15.6614C40.3471 15.6614 37.7737 18.2269 37.7737 21.3795C37.7737 24.5322 40.3459 27.0977 43.5122 27.0977C46.6785 27.0977 49.2506 24.5347 49.2506 21.3795C49.2506 18.2244 46.6785 15.6614 43.5122 15.6614ZM43.5122 28.2049C39.7356 28.2049 36.6614 25.1416 36.6614 21.3783C36.6614 17.615 39.7356 14.5518 43.5122 14.5518C47.2888 14.5518 50.3629 17.615 50.3629 21.3783C50.3629 25.1416 47.2888 28.2049 43.5122 28.2049Z" fill="white"/>
<path d="M43.5122 15.6614C40.3471 15.6614 37.7737 18.2269 37.7737 21.3795C37.7737 24.5322 40.3459 27.0977 43.5122 27.0977C46.6785 27.0977 49.2506 24.5347 49.2506 21.3795C49.2506 18.2244 46.6785 15.6614 43.5122 15.6614ZM43.5122 28.2049C39.7356 28.2049 36.6614 25.1416 36.6614 21.3783C36.6614 17.615 39.7356 14.5518 43.5122 14.5518C47.2888 14.5518 50.3629 17.615 50.3629 21.3783C50.3629 25.1416 47.2888 28.2049 43.5122 28.2049Z" stroke="white" stroke-width="0.18" stroke-miterlimit="10"/>
</svg>
